inDegrees=no
num_controls=7
num_derivatives=13
num_iterations=120
num_multipliers=7
num_parameters=0
num_slacks=7
num_states=26
objective=5.921020
objective_accelerations=0.757169
objective_balance=0.019772
objective_effort=0.515711
objective_height=4.580667
objective_ligament=0.047701
solver_duration=1065.167996
status=Solve_Succeeded
success=true
DataType=double
version=3
OpenSimVersion=4.4-2022-07-23-0e9fedc
endheader
time	/jointset/ground_pelvis/pelvis_tilt/value	/jointset/ground_pelvis/pelvis_tx/value	/jointset/ground_pelvis/pelvis_ty/value	/jointset/hip_r/hip_flexion_r/value	/jointset/hip_r/hip_adduction_r/value	/jointset/hip_r/hip_rotation_r/value	/jointset/back/lumbar_extension/value	/jointset/patellofemoral_r/patellar_flexion_r/value	/jointset/knee_r/knee_flexion_r/value	/jointset/knee_r/knee_adduction_r/value	/jointset/knee_r/knee_rotation_r/value	/jointset/ankle_r/ankle_angle_r/value	/jointset/subtalar_r/subtalar_angle_r/value	/jointset/ground_pelvis/pelvis_tilt/speed	/jointset/ground_pelvis/pelvis_tx/speed	/jointset/ground_pelvis/pelvis_ty/speed	/jointset/hip_r/hip_flexion_r/speed	/jointset/hip_r/hip_adduction_r/speed	/jointset/hip_r/hip_rotation_r/speed	/jointset/back/lumbar_extension/speed	/jointset/patellofemoral_r/patellar_flexion_r/speed	/jointset/knee_r/knee_flexion_r/speed	/jointset/knee_r/knee_adduction_r/speed	/jointset/knee_r/knee_rotation_r/speed	/jointset/ankle_r/ankle_angle_r/speed	/jointset/subtalar_r/subtalar_angle_r/speed	/forceset/tau_hip_flexion_r	/forceset/tau_hip_adduction_r	/forceset/tau_hip_rotation_r	/forceset/tau_knee_flexion_r	/forceset/tau_ankle_angle_r	/forceset/tau_subtalar_angle_r	/forceset/tau_lumbar_extension	lambda_cid13_p0	lambda_cid14_p0	lambda_cid14_p1	lambda_cid14_p2	lambda_cid14_p3	lambda_cid14_p4	lambda_cid14_p5	/jointset/ground_pelvis/pelvis_tilt/accel	/jointset/ground_pelvis/pelvis_tx/accel	/jointset/ground_pelvis/pelvis_ty/accel	/jointset/hip_r/hip_flexion_r/accel	/jointset/hip_r/hip_adduction_r/accel	/jointset/hip_r/hip_rotation_r/accel	/jointset/back/lumbar_extension/accel	/jointset/patellofemoral_r/patellar_flexion_r/accel	/jointset/knee_r/knee_flexion_r/accel	/jointset/knee_r/knee_adduction_r/accel	/jointset/knee_r/knee_rotation_r/accel	/jointset/ankle_r/ankle_angle_r/accel	/jointset/subtalar_r/subtalar_angle_r/accel	gamma_cid13_p0	gamma_cid14_p0	gamma_cid14_p1	gamma_cid14_p2	gamma_cid14_p3	gamma_cid14_p4	gamma_cid14_p5
1.5	-0.1196757874448672	0.01943321794879804	0.7936381371578239	0.9176467027571333	-0.2251945162206031	-0.1157691939270915	-0.638510081486118	1.017512318413744	1.017512318413703	-0.05887440881724436	0.1745192286825687	0.3144067708249376	0.1429610604362744	0.5532416398174939	0.2410353100975237	0.6072006436079926	-2.300547280225404	0.03058139587195999	-0.231682585776591	0.7976255225713883	-2.166343513346868	-2.166343513347163	0.4501801601011403	-1.001434719932565e-05	-0.5292254924209085	-0.1661271077124132	-0.1819931709786298	0.003474924083813288	0.01843699203620971	-0.3117571394088297	0.0180496255671107	0.001841313384333039	0.2273927165967907	-5.524975985360499	-35.76918434705478	-5.040127239961318	0.742168076045163	-4.784086120669602	-626.239049045985	64.19318717609008	0.3170762322576463	0.7019546082292911	-0.5976407074136345	-1.167062597869246	-0.192873073042971	-0.5640091775760742	2.027496248395963	-1.490110137606215	-1.490110137606264	0.5022794353146419	-0.02537593828778503	-0.8163026556709144	-0.4647337065904563	2.742298257997873e-07	2.942821890715245e-07	-7.888296072398811e-07	2.678953235210145e-06	-7.717853777937816e-08	4.132489842353832e-07	-2.564916706820682e-07
1.51	-0.1141277915003134	0.02187838649380523	0.7996790406614908	0.894584967867503	-0.2248996162068329	-0.1181136867276168	-0.6304342803166195	0.9957770950090217	0.9957770950089373	-0.05434509686373874	0.1745195088045157	0.3090741538442622	0.1412749272812087	0.5562698039254527	0.2479655362111645	0.6008464106255186	-2.31149022286339	0.02838133618086645	-0.2371968597386271	0.817419746712545	-2.18039562540839	-2.180395625408663	0.4556764465608549	5.113121718349433e-05	-0.5372092391798594	-0.1710698252942965	-0.173995702376147	0.002700918802735871	0.01832585975717516	-0.306745011680864	0.01926689152787085	0.0009707992245819182	0.2200236272369828	-6.465010722314632	-35.05057049945772	-5.174807056585642	0.6293578312980015	-4.706128889140981	-620.2830449004528	63.40702190186204	0.2825422954099212	0.6836366232367618	-0.6742818690646283	-1.01146505751793	-0.2360154165178222	-0.5419077725060638	1.938140804648383	-1.316976739954054	-1.316976739950576	0.572222112971059	0.01991972685366129	-0.7760494722451615	-0.5046149033125583	2.461224232114198e-07	2.190436987995934e-07	-1.242729156551817e-06	2.045883812696027e-06	4.825913016001493e-09	4.035132818370201e-07	-6.646667385842464e-07
1.52	-0.1085521427556322	0.02439187330200958	0.8056524083802522	0.8714230925593163	-0.2246272053898512	-0.1205126765211628	-0.6221639858441805	0.9739105074837364	0.973910507483715	-0.04976103827337214	0.17452001236673	0.3036643716387496	0.1395402521264579	0.5587721998472595	0.2546989627369554	0.5936934866268915	-2.320575363931556	0.02608355651478122	-0.2425819843802255	0.8365241831606322	-2.192616337451072	-2.192616337451322	0.4611294874874378	3.467370365337505e-05	-0.5446585373883348	-0.1758355076491936	-0.1659982337737392	0.001926913521621304	0.0182147274790365	-0.3017328839528222	0.02048415748861982	0.0001002850647436166	0.2126545378771058	-7.480158322071422	-34.32449021067013	-5.298448473095827	0.503671796961608	-4.663176205265636	-614.2384780204087	62.69713458301733	0.2119225950269906	0.6625946906593524	-0.7573789106442805	-0.7955022839055266	-0.2124170680413955	-0.5381793134885723	1.889538709781937	-1.12383013383823	-1.123830133838137	0.4936303286882311	-0.04089655387038726	-0.7094129455757836	-0.429326661193151	2.298671413154489e-07	1.706259855614137e-07	-1.572252927438437e-06	1.633995015641113e-06	6.055630249869738e-08	4.034637529204867e-07	-9.571211278061863e-07
1.53	-0.1029541317597006	0.02697163838112691	0.8115503434603905	0.8481796603252697	-0.224378131391427	-0.122965954663005	-0.6137062901988257	0.9519307767425559	0.951930776742543	-0.04512368863523817	0.1745203852690764	0.2981828416871043	0.1377590661433792	0.5607363527224408	0.2612131553484294	0.5857684033120428	-2.327792675729963	0.02372289846470097	-0.2480966040507641	0.8548815328099288	-2.203021552817051	-2.203021552817245	0.4662896151934715	4.482987728862843e-05	-0.5515520723104824	-0.1803571125331966	-0.1579338032544456	0.0006527034474742696	0.01814548622910832	-0.2971955082107776	0.02182846358088094	-0.0007183423308040378	0.2052285645906547	-8.568834726591685	-33.58057621506653	-5.382198288360467	0.3553670428753093	-4.586765891268727	-608.5840500352879	62.20105966474282	0.1746256410649501	0.6397175380146291	-0.8287581174249141	-0.6370678515615454	-0.2490726313468543	-0.5612044023854915	1.788821127439411	-0.9526733916808264	-0.952673391672538	0.5193215652254056	0.02292603232840064	-0.6649450661675549	-0.4570247794849958	2.262047376551495e-07	1.507053479215945e-07	-1.769627433748162e-06	1.457110633136601e-06	8.83705018366671e-08	4.137057833283974e-07	-1.126622295930374e-06
1.54	-0.09733928643357644	0.02961532258468328	0.8173652906922755	0.8248736105284609	-0.2241529004650799	-0.125474999223277	-0.6050690234499958	0.9298562326169818	0.9298562326169838	-0.04043631420533872	0.17452105059895	0.2926352521261131	0.1359339746359627	0.5621390658897198	0.2674827876247663	0.5770959169762534	-2.333098876478499	0.0213149421004524	-0.2537352680632694	0.8724384038566786	-2.211579014331158	-2.211579014331298	0.4711344458461059	9.315922484472698e-05	-0.5578704592579656	-0.1846166125164532	-0.1498693727352572	-0.0006215066268053116	0.01807624497922884	-0.2926581324687408	0.02317276967311035	-0.001536969726567164	0.1978025913041235	-9.722085092295172	-32.83020125424507	-5.456842858668979	0.1965022767710695	-4.538111900323983	-602.8469375503993	61.77424086865408	0.09963465344623454	0.613682623631995	-0.906859514832441	-0.4132800739314981	-0.2218767308750857	-0.5629881818818805	1.729442989272433	-0.7542793634638301	-0.7542793634639108	0.4305709180083073	-0.0332619190863253	-0.5943833506428114	-0.3769056810437653	2.202073132372228e-07	1.40018991715978e-07	-1.816982390975335e-06	1.35884655548415e-06	9.776539831961781e-08	4.157516399237305e-07	-1.190273750117061e-06
1.55	-0.09171333738621025	0.03232042704301243	0.8230898376609923	0.8015242393991492	-0.2239518707138805	-0.1280406858897421	-0.5962602343186352	0.9077055665760529	0.9077055665760845	-0.03570198157229187	0.1745219874548268	0.2870275039402317	0.1340678220830602	0.5629540190137237	0.2734912256124974	0.5676972945035862	-2.33644912948526	0.01888294045741413	-0.2594062486241038	0.8891677374365762	-2.218229737459481	-2.218229737459565	0.4756944785557329	9.486189136477551e-05	-0.5635736626360555	-0.1885686726064248	-0.1417299567827047	-0.001921507252473499	0.01805335086430925	-0.2886400251680211	0.02495107078731693	-0.002632678309410326	0.190338553141177	-10.8863848189396	-31.99006875663626	-5.664257932843877	0.09095921744236347	-4.529735839065717	-597.5137741690286	61.18599443832786	0.05792828946389107	0.5874084957808128	-0.9737101041177253	-0.2469478819669046	-0.2549943384072661	-0.5694646865495225	1.621925795479515	-0.5718416677509601	-0.5718416677423185	0.4628619250224933	0.01720559249203534	-0.5424003191058365	-0.397668157294492	2.11519538815943e-07	1.399721336845509e-07	-1.691488737303054e-06	1.351166742117764e-06	8.593805455656958e-08	4.08354078865442e-07	-1.13196792520185e-06
1.56	-0.0860821382781083	0.03508421270310585	0.828716929106855	0.7781511557461593	-0.2237753874706044	-0.1306631447004761	-0.5872887024008543	0.8854981187278513	0.8854981187278096	-0.03092322011657979	0.1745230051839034	0.2813659014230254	0.132163486532392	0.563189078041223	0.2792190279776233	0.5576048124054173	-2.337841381208772	0.01640564051882924	-0.2650896969195397	0.9049869611417374	-2.222935375797185	-2.222935375797211	0.4800202103686693	0.000109333876730194	-0.5686413255226972	-0.1922532120692245	-0.1335905408302354	-0.003221507878157847	0.01803045674865023	-0.2846219178673839	0.02672937190152248	-0.003728386892264833	0.18287451497816	-12.04748189660239	-31.14793850971542	-5.867295154344633	-0.01988330282067784	-4.533485638989943	-592.1572597001335	60.66455461367425	-0.01634416585495308	0.5575554991110452	-1.045631439932771	-0.02167981728191931	-0.2309363899843018	-0.5654817288020857	1.54742101432499	-0.3652624053398791	-0.3652624053398868	0.3837107386701405	-0.03070805531744993	-0.4672752523530531	-0.3234015556092452	2.055639788853064e-07	1.301647547041107e-07	-1.705056575468545e-06	1.247821127224958e-06	9.349064019392844e-08	3.998225066012494e-07	-1.146142184916669e-06
1.57	-0.08045156359394499	0.0379037558392914	0.8342397095598767	0.7547741463943241	-0.2236237262860908	-0.1333430635373934	-0.5781636605249855	0.8632534035733498	0.8632534035732552	-0.0261030696053262	0.1745243954695473	0.2756568395369368	0.1302239264613306	0.5628261968987882	0.2846305334335962	0.5468442429152583	-2.337215512310713	0.01392532707745756	-0.2708813510668637	0.9198493346423439	-2.225666007231438	-2.225666007231383	0.4839708892911181	0.0001590882502192868	-0.5730628588991433	-0.1956064732274901	-0.1255540086176314	-0.004675494664248327	0.01800375122982468	-0.280721863730497	0.0282652547198396	-0.004861384687025638	0.1754808559396387	-13.20119092436491	-30.41664847295635	-6.102543436055016	-0.1294633297807734	-4.388278966580879	-587.2055281348408	60.16204436654147	-0.06120330933883704	0.5241169081085904	-1.107248167041561	0.1564771626762882	-0.2567904329825971	-0.5838165416271374	1.429833609405097	-0.1757566425478142	-0.1757566425356942	0.3946244584383487	0.02150097590730041	-0.4132914723486216	-0.3336478579821436	2.030236870679739e-07	1.081567245374042e-07	-1.892451278431248e-06	1.02489326042413e-06	1.252681375817959e-07	3.898734203296766e-07	-1.250916550419024e-06
1.58	-0.07482760636541107	0.04077564779789002	0.8396516886252994	0.7314137471153067	-0.2234969105583565	-0.1360804607725772	-0.56889515729582	0.8409916234783933	0.8409916234784462	-0.02124463670714739	0.1745260200574034	0.2699068224986746	0.1282523618862751	0.5618655869203776	0.2896887924602389	0.5354445348855974	-2.334519366639577	0.01143654916538864	-0.2765853765714028	0.9336792318020368	-2.226348363868888	-2.226348363868754	0.4876766877898533	0.0001561943127084962	-0.5768323559579228	-0.1986541128676437	-0.1175174764051074	-0.006129481450486546	0.01797704571226002	-0.2768218095935137	0.02980113753811425	-0.005994382482046949	0.1680871969010607	-14.34187774284083	-29.68476705543848	-6.334929740599905	-0.2426508560643141	-4.249650714612142	-582.24943609427	59.71734516016515	-0.1358899330505098	0.4869062132450804	-1.173459147833217	0.392375537333503	-0.232629284123848	-0.5479560002449668	1.340925746142113	0.04439255402054776	0.0443925540205478	0.334734653927337	-0.04123771751773225	-0.3368679888196134	-0.2622772519866481	2.037775089959213e-07	8.708010781910409e-08	-2.11554125867124e-06	7.961273473786738e-07	1.598805323247289e-07	3.800322777618051e-07	-1.361549027725561e-06
